<svg width="512" height="512" viewBox="0 0 512 512" fill="none" xmlns="http://www.w3.org/2000/svg">
  <!-- Background Circle -->
  <circle cx="256" cy="256" r="256" fill="#9333EA"/>
  
  <!-- Heart Shape -->
  <path d="M372 192C372 236.183 336.183 272 292 272C247.817 272 212 236.183 212 192C212 147.817 247.817 112 292 112C336.183 112 372 147.817 372 192Z" fill="white"/>
  <path d="M300 272C300 316.183 264.183 352 220 352C175.817 352 140 316.183 140 272C140 227.817 175.817 192 220 192C264.183 192 300 227.817 300 272Z" fill="white"/>
  
  <!-- Combined Heart -->
  <path d="M256 400C256 400 352 320 352 224C352 179.817 316.183 144 272 144C256.654 144 242.276 148.497 230 156.251C217.724 148.497 203.346 144 188 144C143.817 144 108 179.817 108 224C108 320 204 400 204 400H256Z" fill="white"/>
  
  <!-- Child Silhouette -->
  <path d="M256 288C269.255 288 280 277.255 280 264C280 250.745 269.255 240 256 240C242.745 240 232 250.745 232 264C232 277.255 242.745 288 256 288Z" fill="#9333EA"/>
  <path d="M256 280C264.837 280 272 272.837 272 264C272 255.163 264.837 248 256 248C247.163 248 240 255.163 240 264C240 272.837 247.163 280 256 280Z" fill="white"/>
</svg>